<mxfile host="app.diagrams.net" agent="Mozilla/5.0 (Windows NT 10.0; Win64; x64) AppleWebKit/537.36 (KHTML, like Gecko) Chrome/136.0.0.0 Safari/537.36" version="27.0.6">
  <diagram name="Page-1" id="nZBqf1C8uDKpAFhmyUZ2">
    <mxGraphModel dx="1042" dy="562" grid="1" gridSize="10" guides="1" tooltips="1" connect="1" arrows="1" fold="1" page="1" pageScale="1" pageWidth="850" pageHeight="1100" math="0" shadow="0">
      <root>
        <mxCell id="0" />
        <mxCell id="1" parent="0" />
        <mxCell id="A29k3_Vs45NSuDtstOkQ-2" value="" style="rounded=0;whiteSpace=wrap;html=1;rotation=-90;dashed=1;" parent="1" vertex="1">
          <mxGeometry x="35" y="230" width="350" height="130" as="geometry" />
        </mxCell>
        <mxCell id="A29k3_Vs45NSuDtstOkQ-15" style="edgeStyle=orthogonalEdgeStyle;rounded=0;orthogonalLoop=1;jettySize=auto;html=1;exitX=0.75;exitY=0;exitDx=0;exitDy=0;" parent="1" source="A29k3_Vs45NSuDtstOkQ-1" edge="1">
          <mxGeometry relative="1" as="geometry">
            <mxPoint x="223" y="90" as="targetPoint" />
          </mxGeometry>
        </mxCell>
        <mxCell id="A29k3_Vs45NSuDtstOkQ-1" value="&lt;b&gt;&lt;font style=&quot;font-size: 13px;&quot;&gt;sources&lt;/font&gt;&lt;/b&gt;" style="rounded=0;whiteSpace=wrap;html=1;" parent="1" vertex="1">
          <mxGeometry x="170" y="100" width="70" height="20" as="geometry" />
        </mxCell>
        <mxCell id="A29k3_Vs45NSuDtstOkQ-3" value="" style="image;aspect=fixed;html=1;points=[];align=center;fontSize=12;image=img/lib/azure2/general/Folder_Blank.svg;" parent="1" vertex="1">
          <mxGeometry x="180" y="190" width="49.29" height="40" as="geometry" />
        </mxCell>
        <mxCell id="A29k3_Vs45NSuDtstOkQ-4" value="" style="image;aspect=fixed;html=1;points=[];align=center;fontSize=12;image=img/lib/azure2/general/Folder_Blank.svg;" parent="1" vertex="1">
          <mxGeometry x="180" y="365" width="49.29" height="40" as="geometry" />
        </mxCell>
        <mxCell id="A29k3_Vs45NSuDtstOkQ-6" value="CRM" style="text;html=1;align=center;verticalAlign=middle;whiteSpace=wrap;rounded=0;" parent="1" vertex="1">
          <mxGeometry x="180" y="230" width="60" height="30" as="geometry" />
        </mxCell>
        <mxCell id="A29k3_Vs45NSuDtstOkQ-7" value="ERP" style="text;html=1;align=center;verticalAlign=middle;whiteSpace=wrap;rounded=0;" parent="1" vertex="1">
          <mxGeometry x="175" y="405" width="60" height="30" as="geometry" />
        </mxCell>
        <mxCell id="A29k3_Vs45NSuDtstOkQ-8" value="Bronze layer" style="rounded=0;whiteSpace=wrap;html=1;fillColor=#ffe6cc;strokeColor=#d79b00;" parent="1" vertex="1">
          <mxGeometry x="325" y="100" width="100" height="30" as="geometry" />
        </mxCell>
        <mxCell id="A29k3_Vs45NSuDtstOkQ-10" value="" style="rounded=1;whiteSpace=wrap;html=1;rotation=-90;strokeColor=light-dark(#f2c0c0, #ededed);" parent="1" vertex="1">
          <mxGeometry x="220" y="235" width="320" height="130" as="geometry" />
        </mxCell>
        <mxCell id="b3slA_Yi9StDV0FhvqcC-9" style="edgeStyle=orthogonalEdgeStyle;rounded=0;orthogonalLoop=1;jettySize=auto;html=1;entryX=0;entryY=0.5;entryDx=0;entryDy=0;" parent="1" source="A29k3_Vs45NSuDtstOkQ-12" target="b3slA_Yi9StDV0FhvqcC-3" edge="1">
          <mxGeometry relative="1" as="geometry" />
        </mxCell>
        <mxCell id="A29k3_Vs45NSuDtstOkQ-12" value="crm_sales_details" style="rounded=0;whiteSpace=wrap;html=1;fillColor=#ffe6cc;strokeColor=#d79b00;" parent="1" vertex="1">
          <mxGeometry x="327.5" y="160" width="95" height="30" as="geometry" />
        </mxCell>
        <mxCell id="b3slA_Yi9StDV0FhvqcC-10" style="edgeStyle=orthogonalEdgeStyle;rounded=0;orthogonalLoop=1;jettySize=auto;html=1;entryX=0;entryY=0.5;entryDx=0;entryDy=0;" parent="1" source="A29k3_Vs45NSuDtstOkQ-13" target="b3slA_Yi9StDV0FhvqcC-4" edge="1">
          <mxGeometry relative="1" as="geometry" />
        </mxCell>
        <mxCell id="A29k3_Vs45NSuDtstOkQ-13" value="crm_cust_info" style="rounded=0;whiteSpace=wrap;html=1;fillColor=#ffe6cc;strokeColor=#d79b00;" parent="1" vertex="1">
          <mxGeometry x="335" y="200" width="80" height="30" as="geometry" />
        </mxCell>
        <mxCell id="b3slA_Yi9StDV0FhvqcC-11" style="edgeStyle=orthogonalEdgeStyle;rounded=0;orthogonalLoop=1;jettySize=auto;html=1;entryX=0;entryY=0.25;entryDx=0;entryDy=0;" parent="1" source="A29k3_Vs45NSuDtstOkQ-14" target="b3slA_Yi9StDV0FhvqcC-5" edge="1">
          <mxGeometry relative="1" as="geometry" />
        </mxCell>
        <mxCell id="A29k3_Vs45NSuDtstOkQ-14" value="crm_prd_info" style="rounded=0;whiteSpace=wrap;html=1;fillColor=#ffe6cc;strokeColor=#d79b00;" parent="1" vertex="1">
          <mxGeometry x="335" y="240" width="80" height="30" as="geometry" />
        </mxCell>
        <mxCell id="b3slA_Yi9StDV0FhvqcC-12" style="edgeStyle=orthogonalEdgeStyle;rounded=0;orthogonalLoop=1;jettySize=auto;html=1;entryX=0;entryY=0.5;entryDx=0;entryDy=0;" parent="1" source="A29k3_Vs45NSuDtstOkQ-16" target="b3slA_Yi9StDV0FhvqcC-6" edge="1">
          <mxGeometry relative="1" as="geometry" />
        </mxCell>
        <mxCell id="A29k3_Vs45NSuDtstOkQ-16" value="erp_cust_az12" style="rounded=0;whiteSpace=wrap;html=1;fillColor=#ffe6cc;strokeColor=#d79b00;" parent="1" vertex="1">
          <mxGeometry x="327.5" y="340" width="95" height="30" as="geometry" />
        </mxCell>
        <mxCell id="b3slA_Yi9StDV0FhvqcC-15" style="edgeStyle=orthogonalEdgeStyle;rounded=0;orthogonalLoop=1;jettySize=auto;html=1;" parent="1" source="A29k3_Vs45NSuDtstOkQ-17" edge="1">
          <mxGeometry relative="1" as="geometry">
            <mxPoint x="470" y="395" as="targetPoint" />
          </mxGeometry>
        </mxCell>
        <mxCell id="A29k3_Vs45NSuDtstOkQ-17" value="erp_loc_a101" style="rounded=0;whiteSpace=wrap;html=1;fillColor=#ffe6cc;strokeColor=#d79b00;" parent="1" vertex="1">
          <mxGeometry x="335" y="380" width="80" height="30" as="geometry" />
        </mxCell>
        <mxCell id="A29k3_Vs45NSuDtstOkQ-18" value="erp_px_cat_g1v2" style="rounded=0;whiteSpace=wrap;html=1;fillColor=#ffe6cc;strokeColor=#d79b00;" parent="1" vertex="1">
          <mxGeometry x="335" y="420" width="85" height="30" as="geometry" />
        </mxCell>
        <mxCell id="A29k3_Vs45NSuDtstOkQ-20" value="" style="endArrow=classic;html=1;rounded=0;exitX=0.958;exitY=0.615;exitDx=0;exitDy=0;exitPerimeter=0;entryX=0;entryY=0.75;entryDx=0;entryDy=0;" parent="1" source="A29k3_Vs45NSuDtstOkQ-3" edge="1">
          <mxGeometry width="50" height="50" relative="1" as="geometry">
            <mxPoint x="232.3046099999999" y="239.99999999999994" as="sourcePoint" />
            <mxPoint x="335" y="210.7" as="targetPoint" />
          </mxGeometry>
        </mxCell>
        <mxCell id="A29k3_Vs45NSuDtstOkQ-21" value="" style="endArrow=classic;startArrow=classic;html=1;rounded=0;exitX=0;exitY=0.75;exitDx=0;exitDy=0;entryX=0.906;entryY=0.038;entryDx=0;entryDy=0;entryPerimeter=0;" parent="1" source="A29k3_Vs45NSuDtstOkQ-14" target="A29k3_Vs45NSuDtstOkQ-10" edge="1">
          <mxGeometry width="50" height="50" relative="1" as="geometry">
            <mxPoint x="280" y="270" as="sourcePoint" />
            <mxPoint x="280" y="150" as="targetPoint" />
            <Array as="points">
              <mxPoint x="280" y="260" />
              <mxPoint x="280" y="170" />
            </Array>
          </mxGeometry>
        </mxCell>
        <mxCell id="A29k3_Vs45NSuDtstOkQ-24" value="" style="endArrow=classic;startArrow=classic;html=1;rounded=0;exitX=0;exitY=0.75;exitDx=0;exitDy=0;entryX=0.906;entryY=0.038;entryDx=0;entryDy=0;entryPerimeter=0;" parent="1" edge="1">
          <mxGeometry width="50" height="50" relative="1" as="geometry">
            <mxPoint x="335" y="443" as="sourcePoint" />
            <mxPoint x="320" y="350" as="targetPoint" />
            <Array as="points">
              <mxPoint x="280" y="440" />
              <mxPoint x="280" y="350" />
            </Array>
          </mxGeometry>
        </mxCell>
        <mxCell id="A29k3_Vs45NSuDtstOkQ-25" value="" style="endArrow=classic;html=1;rounded=0;entryX=0;entryY=0.75;entryDx=0;entryDy=0;" parent="1" edge="1">
          <mxGeometry width="50" height="50" relative="1" as="geometry">
            <mxPoint x="230" y="393" as="sourcePoint" />
            <mxPoint x="337.29" y="392.85" as="targetPoint" />
          </mxGeometry>
        </mxCell>
        <mxCell id="b3slA_Yi9StDV0FhvqcC-1" value="Silver layer" style="rounded=0;whiteSpace=wrap;html=1;fillColor=#f5f5f5;strokeColor=#666666;fontColor=#333333;" parent="1" vertex="1">
          <mxGeometry x="485" y="100" width="100" height="30" as="geometry" />
        </mxCell>
        <mxCell id="b3slA_Yi9StDV0FhvqcC-2" value="" style="rounded=1;whiteSpace=wrap;html=1;rotation=-90;strokeColor=#666666;fillColor=#f5f5f5;fontColor=#333333;" parent="1" vertex="1">
          <mxGeometry x="380" y="235" width="320" height="130" as="geometry" />
        </mxCell>
        <mxCell id="b3slA_Yi9StDV0FhvqcC-3" value="crm_sales_details" style="rounded=0;whiteSpace=wrap;html=1;fillColor=#f5f5f5;strokeColor=#666666;fontColor=#333333;" parent="1" vertex="1">
          <mxGeometry x="487.5" y="160" width="95" height="30" as="geometry" />
        </mxCell>
        <mxCell id="b3slA_Yi9StDV0FhvqcC-4" value="crm_cust_info" style="rounded=0;whiteSpace=wrap;html=1;fillColor=#f5f5f5;strokeColor=#666666;fontColor=#333333;" parent="1" vertex="1">
          <mxGeometry x="495" y="200" width="80" height="30" as="geometry" />
        </mxCell>
        <mxCell id="b3slA_Yi9StDV0FhvqcC-5" value="crm_prd_info" style="rounded=0;whiteSpace=wrap;html=1;fillColor=#f5f5f5;strokeColor=#666666;fontColor=#333333;" parent="1" vertex="1">
          <mxGeometry x="495" y="240" width="80" height="30" as="geometry" />
        </mxCell>
        <mxCell id="b3slA_Yi9StDV0FhvqcC-6" value="erp_cust_az12" style="rounded=0;whiteSpace=wrap;html=1;fillColor=#f5f5f5;strokeColor=#666666;fontColor=#333333;" parent="1" vertex="1">
          <mxGeometry x="487.5" y="340" width="95" height="30" as="geometry" />
        </mxCell>
        <mxCell id="b3slA_Yi9StDV0FhvqcC-7" value="erp_loc_a101" style="rounded=0;whiteSpace=wrap;html=1;fillColor=#f5f5f5;strokeColor=#666666;fontColor=#333333;" parent="1" vertex="1">
          <mxGeometry x="495" y="380" width="80" height="30" as="geometry" />
        </mxCell>
        <mxCell id="b3slA_Yi9StDV0FhvqcC-8" value="erp_px_cat_g1v2" style="rounded=0;whiteSpace=wrap;html=1;fillColor=#f5f5f5;strokeColor=#666666;fontColor=#333333;" parent="1" vertex="1">
          <mxGeometry x="495" y="420" width="105" height="30" as="geometry" />
        </mxCell>
        <mxCell id="b3slA_Yi9StDV0FhvqcC-16" style="edgeStyle=orthogonalEdgeStyle;rounded=0;orthogonalLoop=1;jettySize=auto;html=1;entryX=0.074;entryY=0.029;entryDx=0;entryDy=0;entryPerimeter=0;" parent="1" source="A29k3_Vs45NSuDtstOkQ-18" target="b3slA_Yi9StDV0FhvqcC-2" edge="1">
          <mxGeometry relative="1" as="geometry" />
        </mxCell>
        <mxCell id="jtOD2l0NuCtS_E8uo9_0-8" value="" style="rounded=1;whiteSpace=wrap;html=1;rotation=-90;strokeColor=#d6b656;fillColor=#fff2cc;" vertex="1" parent="1">
          <mxGeometry x="570" y="230" width="320" height="130" as="geometry" />
        </mxCell>
        <mxCell id="jtOD2l0NuCtS_E8uo9_0-9" value="gold layer" style="rounded=0;whiteSpace=wrap;html=1;fillColor=#fff2cc;strokeColor=#d6b656;" vertex="1" parent="1">
          <mxGeometry x="670" y="95" width="100" height="30" as="geometry" />
        </mxCell>
        <mxCell id="jtOD2l0NuCtS_E8uo9_0-10" value="fact_sales" style="rounded=0;whiteSpace=wrap;html=1;fillColor=#fff2cc;strokeColor=#d6b656;" vertex="1" parent="1">
          <mxGeometry x="670" y="180" width="100" height="30" as="geometry" />
        </mxCell>
        <mxCell id="jtOD2l0NuCtS_E8uo9_0-11" value="dim_customers" style="rounded=0;whiteSpace=wrap;html=1;fillColor=#fff2cc;strokeColor=#d6b656;" vertex="1" parent="1">
          <mxGeometry x="680" y="260" width="100" height="30" as="geometry" />
        </mxCell>
        <mxCell id="jtOD2l0NuCtS_E8uo9_0-12" value="dim_products" style="rounded=0;whiteSpace=wrap;html=1;fillColor=#fff2cc;strokeColor=#d6b656;" vertex="1" parent="1">
          <mxGeometry x="680" y="335" width="100" height="30" as="geometry" />
        </mxCell>
        <mxCell id="jtOD2l0NuCtS_E8uo9_0-13" value="" style="endArrow=classic;html=1;rounded=0;exitX=1;exitY=0.5;exitDx=0;exitDy=0;" edge="1" parent="1" source="b3slA_Yi9StDV0FhvqcC-4" target="jtOD2l0NuCtS_E8uo9_0-8">
          <mxGeometry width="50" height="50" relative="1" as="geometry">
            <mxPoint x="600" y="250" as="sourcePoint" />
            <mxPoint x="650" y="200" as="targetPoint" />
          </mxGeometry>
        </mxCell>
        <mxCell id="jtOD2l0NuCtS_E8uo9_0-15" value="" style="endArrow=classic;html=1;rounded=0;exitX=1;exitY=0.5;exitDx=0;exitDy=0;entryX=0.329;entryY=0.002;entryDx=0;entryDy=0;entryPerimeter=0;" edge="1" parent="1" target="jtOD2l0NuCtS_E8uo9_0-8">
          <mxGeometry width="50" height="50" relative="1" as="geometry">
            <mxPoint x="575" y="260" as="sourcePoint" />
            <mxPoint x="665" y="306" as="targetPoint" />
          </mxGeometry>
        </mxCell>
        <mxCell id="jtOD2l0NuCtS_E8uo9_0-16" value="" style="endArrow=classic;html=1;rounded=0;exitX=1;exitY=0.5;exitDx=0;exitDy=0;entryX=0.547;entryY=0.077;entryDx=0;entryDy=0;entryPerimeter=0;" edge="1" parent="1" target="jtOD2l0NuCtS_E8uo9_0-8">
          <mxGeometry width="50" height="50" relative="1" as="geometry">
            <mxPoint x="585" y="360" as="sourcePoint" />
            <mxPoint x="675" y="450" as="targetPoint" />
          </mxGeometry>
        </mxCell>
        <mxCell id="jtOD2l0NuCtS_E8uo9_0-17" value="" style="endArrow=classic;html=1;rounded=0;exitX=1;exitY=0.5;exitDx=0;exitDy=0;entryX=0.484;entryY=0.192;entryDx=0;entryDy=0;entryPerimeter=0;" edge="1" parent="1" target="jtOD2l0NuCtS_E8uo9_0-8">
          <mxGeometry width="50" height="50" relative="1" as="geometry">
            <mxPoint x="582.5" y="395" as="sourcePoint" />
            <mxPoint x="672.5" y="315" as="targetPoint" />
          </mxGeometry>
        </mxCell>
        <mxCell id="jtOD2l0NuCtS_E8uo9_0-18" value="" style="endArrow=classic;html=1;rounded=0;exitX=1;exitY=0.5;exitDx=0;exitDy=0;" edge="1" parent="1">
          <mxGeometry width="50" height="50" relative="1" as="geometry">
            <mxPoint x="592.5" y="442.5" as="sourcePoint" />
            <mxPoint x="680" y="370" as="targetPoint" />
          </mxGeometry>
        </mxCell>
      </root>
    </mxGraphModel>
  </diagram>
</mxfile>
